<svg version="1.1" id="Layer_1" xmlns="http://www.w3.org/2000/svg" xmlns:xlink="http://www.w3.org/1999/xlink" x="0px" y="0px"
	 width="100%" viewBox="0 0 512 512" enable-background="new 0 0 512 512" xml:space="preserve">
<path fill="#484D55" opacity="1.000000" stroke="none" 
	d="
M422.000000,513.000000 
	C281.771484,513.000000 141.542969,513.000000 1.000000,513.000000 
	C1.000000,458.312836 1.000000,403.625092 1.334110,348.377319 
	C2.757126,346.399567 3.704871,344.841187 4.956269,343.585358 
	C21.769587,326.712860 38.621510,309.878784 55.474140,293.045471 
	C58.226616,290.296143 61.280350,288.772797 65.477669,288.896179 
	C75.962715,289.204346 86.462891,288.997803 96.956993,288.997803 
	C100.225151,288.997803 103.493309,288.997803 106.997787,288.997803 
	C106.997787,282.229675 107.209114,276.078613 106.937416,269.948975 
	C106.674095,264.008453 109.362556,260.043945 114.116417,256.957275 
	C121.465973,252.185318 128.757919,247.322296 135.994659,242.381256 
	C137.200760,241.557755 138.840790,240.158112 138.862152,238.998535 
	C139.075638,227.414017 138.991776,215.824036 138.991776,204.002213 
	C127.375572,204.002213 116.400238,204.074661 105.426926,203.957718 
	C102.168480,203.923004 98.905403,203.436111 95.662018,203.019516 
	C74.234726,200.267303 56.678547,190.556213 42.561352,174.156082 
	C29.373636,158.835724 22.954121,141.143982 21.918976,121.121574 
	C21.430065,111.664749 27.020147,106.868637 36.356686,106.930199 
	C64.672867,107.116928 92.991219,106.951920 121.308342,107.042679 
	C126.058456,107.057899 130.838867,107.421402 135.549683,108.044388 
	C149.220200,109.852303 160.997070,123.469299 161.000305,137.234467 
	C161.006744,164.719009 161.002197,192.203568 161.002197,219.688110 
	C161.002197,221.413284 161.002213,223.138443 161.002213,225.625336 
	C175.371521,216.076431 189.072784,207.419144 202.258789,198.037628 
	C209.922455,192.585114 217.001541,190.697113 224.993439,197.314301 
	C225.896484,198.270966 226.596375,198.996658 227.415588,199.543579 
	C249.978210,214.606659 272.546021,229.662048 295.141541,244.675690 
	C296.645386,245.674957 298.375244,246.334076 300.153381,247.458893 
	C305.452545,251.163300 310.506134,254.712219 315.775055,257.905914 
	C319.562988,260.201965 321.187500,263.216125 321.057800,267.635925 
	C320.850189,274.712952 321.002197,281.800476 321.002197,288.997803 
	C335.582550,288.997803 349.409180,289.106354 363.232056,288.926971 
	C367.027985,288.877747 369.760864,290.149658 372.368469,292.799011 
	C383.472046,304.080292 394.679352,315.260498 405.936829,326.388611 
	C409.690430,330.099060 413.631165,333.630890 417.619873,337.090424 
	C424.497925,343.056030 428.386627,349.617004 428.259613,359.614319 
	C427.675323,405.596649 427.935150,451.590729 428.082153,497.580017 
	C428.101807,503.734436 427.525635,509.232178 422.000000,513.000000 
M133.045563,270.688782 
	C129.687683,272.124725 128.910263,274.638275 128.916168,278.230377 
	C129.029938,347.538177 128.998535,416.846222 129.011261,486.154236 
	C129.011581,487.904358 129.172882,489.654510 129.258926,491.400879 
	C140.078873,491.400879 150.326019,491.400879 160.999634,491.400879 
	C160.999634,489.254395 160.999649,487.451660 160.999649,485.648956 
	C160.999664,464.156799 160.994980,442.664673 161.001572,421.172516 
	C161.005051,409.823151 164.557602,406.263672 175.953979,406.256714 
	C201.444672,406.241180 226.935349,406.244690 252.426041,406.254791 
	C264.185364,406.259460 267.736145,409.758148 267.744110,421.364594 
	C267.758728,442.690125 267.748413,464.015686 267.748474,485.341217 
	C267.748474,487.282196 267.748474,489.223206 267.748474,491.747040 
	C277.040039,491.747040 285.672241,491.497101 294.279816,491.849670 
	C298.762543,492.033295 299.848511,490.581207 299.840179,486.221375 
	C299.707916,416.913605 299.720581,347.605530 299.823120,278.297668 
	C299.828400,274.719635 298.736877,272.616943 295.725952,270.629791 
	C269.874725,253.568451 244.098694,236.391785 218.426132,219.062973 
	C215.247101,216.917160 213.147522,217.139725 210.097168,219.194229 
	C184.683243,236.311264 159.150894,253.252472 133.045563,270.688782 
M38.502289,459.743408 
	C33.247429,459.743408 27.992571,459.743408 22.247730,459.743408 
	C22.247730,469.160095 22.432867,477.792542 22.166021,486.410980 
	C22.041246,490.440918 23.108381,491.878723 27.396400,491.845856 
	C52.376217,491.654480 77.359291,491.635468 102.338577,491.859192 
	C106.876465,491.899811 107.860039,490.459503 107.843063,486.178314 
	C107.688622,447.208130 107.755234,408.237061 107.742409,369.266266 
	C107.741875,367.640686 107.595406,366.015137 107.507530,364.195007 
	C78.991135,364.195007 50.834953,364.195007 22.261093,364.195007 
	C22.261093,373.940216 22.328712,383.240814 22.224867,392.539490 
	C22.187908,395.848907 24.241226,395.765625 26.524426,395.760254 
	C36.350342,395.737183 46.176342,395.751862 56.002312,395.752625 
	C58.909462,395.752838 61.816616,395.752686 64.571579,395.752686 
	C64.571579,403.368378 64.571579,410.088196 64.571579,417.170654 
	C50.378437,417.170654 36.607525,417.170654 22.595762,417.170654 
	C22.595762,424.277283 22.595762,431.000092 22.595762,438.354004 
	C36.831024,438.354004 50.730415,438.354004 64.678329,438.354004 
	C64.678329,445.734253 64.678329,452.476166 64.678329,459.743256 
	C56.079884,459.743256 47.790771,459.743256 38.502289,459.743408 
M381.501709,438.252228 
	C389.596344,438.252228 397.690948,438.252228 405.849457,438.252228 
	C405.849457,430.776703 405.849457,424.069580 405.849457,416.863953 
	C391.708038,416.863953 377.960999,416.863953 364.140686,416.863953 
	C364.140686,409.633728 364.140686,402.917084 364.140686,395.623718 
	C378.266876,395.623718 392.010986,395.623718 405.920410,395.623718 
	C405.920410,384.800262 405.920410,374.564819 405.920410,364.083984 
	C377.552734,364.083984 349.517365,364.083984 321.248444,364.083984 
	C321.248444,406.648773 321.248444,448.877350 321.248444,491.426910 
	C349.543610,491.426910 377.590302,491.426910 405.787842,491.426910 
	C405.787842,480.756592 405.787842,470.407013 405.787842,459.468262 
	C391.600281,459.468262 377.870239,459.468262 364.177246,459.468262 
	C364.177246,452.141693 364.177246,445.421356 364.177246,438.252411 
	C369.900085,438.252411 375.201385,438.252411 381.501709,438.252228 
M139.746536,142.854828 
	C139.332062,132.387894 135.816071,129.007095 125.267265,129.002792 
	C100.312340,128.992645 75.357414,128.999542 50.402493,128.999542 
	C48.653511,128.999542 46.904533,128.999542 44.743462,128.999542 
	C47.805676,145.804092 55.908230,158.651199 68.501999,168.912354 
	C89.743813,186.219772 114.819115,181.794861 139.747314,182.145081 
	C139.747314,168.986557 139.747314,156.384842 139.746536,142.854828 
M202.500641,491.764099 
	C216.921051,491.764099 231.341446,491.764099 246.197205,491.764099 
	C246.197205,470.795471 246.246719,450.665192 246.040024,430.537598 
	C246.030441,429.604279 243.734894,427.903625 242.491837,427.892303 
	C223.672012,427.720428 204.850021,427.805786 186.028931,427.732971 
	C183.266266,427.722290 182.193130,428.667206 182.204773,431.497314 
	C182.282242,450.318390 182.276138,469.140045 182.208984,487.961182 
	C182.199081,490.732666 183.211807,491.856842 186.011765,491.791260 
	C191.172256,491.670319 196.337708,491.761169 202.500641,491.764099 
M77.499939,342.252472 
	C86.147606,342.251617 94.797165,342.147034 103.441948,342.304535 
	C106.598663,342.362061 107.903854,341.468140 107.817528,338.097870 
	C107.617462,330.286865 107.655022,322.465302 107.803749,314.652008 
	C107.862366,311.572662 107.093216,310.128174 103.655563,310.184784 
	C93.181442,310.357391 82.701752,310.180237 72.226784,310.324371 
	C70.735870,310.344879 68.877083,311.001801 67.835266,312.023560 
	C58.219246,321.454651 48.741230,331.026581 39.253216,340.587463 
	C38.993496,340.849152 39.071815,341.446320 38.926704,342.252686 
	C51.587566,342.252686 64.043747,342.252686 77.499939,342.252472 
M356.499969,342.244965 
	C367.526642,342.244965 378.553345,342.244965 389.580017,342.244965 
	C389.778839,341.749268 389.977661,341.253540 390.176483,340.757843 
	C385.645142,336.406860 381.095245,332.075043 376.587036,327.700226 
	C370.739471,322.025696 365.829895,314.145264 358.841919,311.233948 
	C351.860596,308.325409 342.813690,310.352844 334.671844,310.260559 
	C330.238068,310.210266 325.803253,310.251587 321.325806,310.251587 
	C321.325806,321.254761 321.325806,331.496796 321.325806,342.245178 
	C332.929962,342.245178 344.214935,342.245178 356.499969,342.244965 
z"/>
<path fill="#FFFFFF" opacity="1.000000" stroke="none" 
	d="
M224.845901,197.000000 
	C217.001541,190.697113 209.922455,192.585114 202.258789,198.037628 
	C189.072784,207.419144 175.371521,216.076431 161.002213,225.625336 
	C161.002213,223.138443 161.002197,221.413284 161.002197,219.688110 
	C161.002197,192.203568 161.006744,164.719009 161.000305,137.234467 
	C160.997070,123.469299 149.220200,109.852303 135.549683,108.044388 
	C130.838867,107.421402 126.058456,107.057899 121.308342,107.042679 
	C92.991219,106.951920 64.672867,107.116928 36.356686,106.930199 
	C27.020147,106.868637 21.430065,111.664749 21.918976,121.121574 
	C22.954121,141.143982 29.373636,158.835724 42.561352,174.156082 
	C56.678547,190.556213 74.234726,200.267303 95.662018,203.019516 
	C98.905403,203.436111 102.168480,203.923004 105.426926,203.957718 
	C116.400238,204.074661 127.375572,204.002213 138.991776,204.002213 
	C138.991776,215.824036 139.075638,227.414017 138.862152,238.998535 
	C138.840790,240.158112 137.200760,241.557755 135.994659,242.381256 
	C128.757919,247.322296 121.465973,252.185318 114.116417,256.957275 
	C109.362556,260.043945 106.674095,264.008453 106.937416,269.948975 
	C107.209114,276.078613 106.997787,282.229675 106.997787,288.997803 
	C103.493309,288.997803 100.225151,288.997803 96.956993,288.997803 
	C86.462891,288.997803 75.962715,289.204346 65.477669,288.896179 
	C61.280350,288.772797 58.226616,290.296143 55.474140,293.045471 
	C38.621510,309.878784 21.769587,326.712860 4.956269,343.585358 
	C3.704871,344.841187 2.757126,346.399567 1.334110,347.908630 
	C1.000000,232.420029 1.000000,116.840073 1.000000,1.000000 
	C79.687370,1.000000 158.375031,1.000000 237.403412,1.348735 
	C223.791382,5.523418 213.917297,18.057449 213.955994,32.649078 
	C214.074203,77.227249 213.998932,121.805931 213.998932,166.384415 
	C213.998932,168.156433 213.998932,169.928467 213.998932,172.104324 
	C218.017181,172.104324 221.481766,172.104324 224.966492,172.565735 
	C224.939728,181.018082 224.892807,189.009048 224.845901,197.000000 
z"/>
<path fill="#FFFFFF" opacity="1.000000" stroke="none" 
	d="
M422.468658,513.000000 
	C427.525635,509.232178 428.101807,503.734436 428.082153,497.580017 
	C427.935150,451.590729 427.675323,405.596649 428.259613,359.614319 
	C428.386627,349.617004 424.497925,343.056030 417.619873,337.090424 
	C413.631165,333.630890 409.690430,330.099060 405.936829,326.388611 
	C394.679352,315.260498 383.472046,304.080292 372.368469,292.799011 
	C369.760864,290.149658 367.027985,288.877747 363.232056,288.926971 
	C349.409180,289.106354 335.582550,288.997803 321.002197,288.997803 
	C321.002197,281.800476 320.850189,274.712952 321.057800,267.635925 
	C321.187500,263.216125 319.562988,260.201965 315.775055,257.905914 
	C310.506134,254.712219 305.452545,251.163300 300.619202,247.401459 
	C314.575226,247.033463 328.218872,247.030411 341.921814,247.481354 
	C341.981140,250.866409 341.981140,253.797485 341.981140,257.155334 
	C363.634277,257.155334 384.677307,257.155334 405.998962,257.155334 
	C405.998962,267.066772 406.267548,276.538086 405.902039,285.984863 
	C405.668488,292.021423 407.053314,296.864288 412.885071,299.303986 
	C418.584961,301.688538 422.754791,299.040009 426.751312,294.872192 
	C435.963654,285.265167 445.544678,276.012726 454.917236,266.558044 
	C461.324829,260.094269 468.097656,254.812134 478.123718,256.926270 
	C480.513641,257.430237 483.122650,257.216278 485.592499,256.961029 
	C493.470276,256.146973 500.244598,252.828873 505.012329,246.508408 
	C508.142731,242.358536 510.368927,237.526535 513.000000,233.000000 
	C513.000000,326.223175 513.000000,419.446320 513.000000,513.000000 
	C482.979919,513.000000 452.958618,513.000000 422.468658,513.000000 
z"/>
<path fill="#474D54" opacity="1.000000" stroke="none" 
	d="
M513.000000,232.531342 
	C510.368927,237.526535 508.142731,242.358536 505.012329,246.508408 
	C500.244598,252.828873 493.470276,256.146973 485.592499,256.961029 
	C483.122650,257.216278 480.513641,257.430237 478.123718,256.926270 
	C468.097656,254.812134 461.324829,260.094269 454.917236,266.558044 
	C445.544678,276.012726 435.963654,285.265167 426.751312,294.872192 
	C422.754791,299.040009 418.584961,301.688538 412.885071,299.303986 
	C407.053314,296.864288 405.668488,292.021423 405.902039,285.984863 
	C406.267548,276.538086 405.998962,267.066772 405.998962,257.155334 
	C384.677307,257.155334 363.634277,257.155334 341.981140,257.155334 
	C341.981140,253.797485 341.981140,250.866409 342.028687,247.031631 
	C342.224945,242.851044 342.373657,239.574158 342.533905,236.042496 
	C344.443359,235.932922 345.913025,235.776093 347.382812,235.775085 
	C369.711792,235.759720 392.040863,235.729446 414.369720,235.781799 
	C423.760651,235.803802 427.577576,239.689713 427.745972,249.192764 
	C427.818237,253.270676 427.758057,257.350952 427.758057,261.430145 
	C428.375641,261.803497 428.993195,262.176880 429.610779,262.550232 
	C432.986176,258.743164 436.153412,254.724533 439.771881,251.164551 
	C458.593719,232.647110 450.868683,236.110794 476.418976,235.783844 
	C488.164398,235.633560 491.755859,232.221909 491.757965,220.621933 
	C491.769012,159.467194 491.770508,98.312447 491.756409,37.157703 
	C491.753815,25.882511 488.074982,22.244076 476.698242,22.242443 
	C401.379578,22.231627 326.060944,22.232744 250.742279,22.241186 
	C239.246506,22.242474 235.770142,25.690073 235.767319,37.069981 
	C235.757172,77.895355 235.763214,118.720726 235.763153,159.546097 
	C235.763138,170.938339 235.763153,170.938339 224.946335,172.104324 
	C221.481766,172.104324 218.017181,172.104324 213.998932,172.104324 
	C213.998932,169.928467 213.998932,168.156433 213.998932,166.384415 
	C213.998932,121.805931 214.074203,77.227249 213.955994,32.649078 
	C213.917297,18.057449 223.791382,5.523418 237.872070,1.348735 
	C321.354218,1.000000 404.708466,1.000000 488.665405,1.353436 
	C496.199738,3.363050 502.078064,6.809453 506.109344,12.715321 
	C508.746094,16.578220 510.725952,20.889523 513.000000,24.999994 
	C513.000000,94.020897 513.000000,163.041794 513.000000,232.531342 
z"/>
<path fill="#FFFFFF" opacity="1.000000" stroke="none" 
	d="
M513.000000,24.531303 
	C510.725952,20.889523 508.746094,16.578220 506.109344,12.715321 
	C502.078064,6.809453 496.199738,3.363050 489.134094,1.353436 
	C496.926331,1.000000 504.852661,1.000000 513.000000,1.000000 
	C513.000000,8.686131 513.000000,16.374374 513.000000,24.531303 
z"/>
<path fill="#5CDFBE" opacity="1.000000" stroke="none" 
	d="
M224.966492,172.565735 
	C235.763153,170.938339 235.763138,170.938339 235.763153,159.546097 
	C235.763214,118.720726 235.757172,77.895355 235.767319,37.069981 
	C235.770142,25.690073 239.246506,22.242474 250.742279,22.241186 
	C326.060944,22.232744 401.379578,22.231627 476.698242,22.242443 
	C488.074982,22.244076 491.753815,25.882511 491.756409,37.157703 
	C491.770508,98.312447 491.769012,159.467194 491.757965,220.621933 
	C491.755859,232.221909 488.164398,235.633560 476.418976,235.783844 
	C450.868683,236.110794 458.593719,232.647110 439.771881,251.164551 
	C436.153412,254.724533 432.986176,258.743164 429.610779,262.550232 
	C428.993195,262.176880 428.375641,261.803497 427.758057,261.430145 
	C427.758057,257.350952 427.818237,253.270676 427.745972,249.192764 
	C427.577576,239.689713 423.760651,235.803802 414.369720,235.781799 
	C392.040863,235.729446 369.711792,235.759720 347.382812,235.775085 
	C345.913025,235.776093 344.443359,235.932922 342.533905,236.042496 
	C342.373657,239.574158 342.224945,242.851044 341.969360,246.577637 
	C328.218872,247.030411 314.575226,247.033463 300.465820,247.093948 
	C298.375244,246.334076 296.645386,245.674957 295.141541,244.675690 
	C272.546021,229.662048 249.978210,214.606659 227.415588,199.543579 
	C226.596375,198.996658 225.896484,198.270966 224.993439,197.314301 
	C224.892807,189.009048 224.939728,181.018082 224.966492,172.565735 
M455.292450,150.238235 
	C458.822662,150.724457 459.859589,149.123322 459.827423,145.685440 
	C459.682556,130.187027 459.727753,114.686401 459.777924,99.186821 
	C459.798706,92.764244 457.030487,88.526161 450.893036,86.247314 
	C423.733032,76.162735 396.659607,65.842178 369.427094,55.959030 
	C366.122955,54.759892 361.656952,54.619446 358.387543,55.804295 
	C330.837463,65.788536 303.427429,76.160667 276.008606,86.504440 
	C270.227753,88.685265 267.785767,92.152885 267.890167,97.219330 
	C268.002167,102.652351 271.232544,105.684395 275.948212,107.495598 
	C282.320770,109.943192 288.634277,112.586220 295.127991,114.660599 
	C298.835083,115.844810 299.874268,117.783730 299.839661,121.522148 
	C299.665161,140.353577 299.751831,159.187485 299.763336,178.020523 
	C299.770447,189.675262 303.047760,192.996658 314.532623,192.998795 
	C347.365448,193.004883 380.198242,193.005981 413.031067,192.998093 
	C424.012482,192.995453 427.739258,189.304901 427.758057,178.322021 
	C427.789154,160.155701 427.766632,141.989273 427.767365,123.822891 
	C427.767670,115.486214 428.672455,114.536583 438.319153,113.333984 
	C438.319153,125.485580 438.319153,137.571716 438.319153,150.240097 
	C444.078278,150.240097 449.206116,150.240097 455.292450,150.238235 
z"/>
<path fill="#C0C9D3" opacity="1.000000" stroke="none" 
	d="
M133.349930,270.467773 
	C159.150894,253.252472 184.683243,236.311264 210.097168,219.194229 
	C213.147522,217.139725 215.247101,216.917160 218.426132,219.062973 
	C244.098694,236.391785 269.874725,253.568451 295.725952,270.629791 
	C298.736877,272.616943 299.828400,274.719635 299.823120,278.297668 
	C299.720581,347.605530 299.707916,416.913605 299.840179,486.221375 
	C299.848511,490.581207 298.762543,492.033295 294.279816,491.849670 
	C285.672241,491.497101 277.040039,491.747040 267.748474,491.747040 
	C267.748474,489.223206 267.748474,487.282196 267.748474,485.341217 
	C267.748413,464.015686 267.758728,442.690125 267.744110,421.364594 
	C267.736145,409.758148 264.185364,406.259460 252.426041,406.254791 
	C226.935349,406.244690 201.444672,406.241180 175.953979,406.256714 
	C164.557602,406.263672 161.005051,409.823151 161.001572,421.172516 
	C160.994980,442.664673 160.999664,464.156799 160.999649,485.648956 
	C160.999649,487.451660 160.999634,489.254395 160.999634,491.400879 
	C150.326019,491.400879 140.078873,491.400879 129.258926,491.400879 
	C129.172882,489.654510 129.011581,487.904358 129.011261,486.154236 
	C128.998535,416.846222 129.029938,347.538177 128.916168,278.230377 
	C128.910263,274.638275 129.687683,272.124725 133.349930,270.467773 
M239.815094,344.380798 
	C260.057098,327.561707 262.667267,301.769440 246.116745,282.111176 
	C234.108307,267.847870 211.722748,263.605957 195.096634,272.443237 
	C177.101562,282.008179 167.890976,302.258972 173.095154,320.816559 
	C181.366776,350.312408 213.296844,361.906982 239.815094,344.380798 
z"/>
<path fill="#BFC8D2" opacity="1.000000" stroke="none" 
	d="
M39.001976,459.743347 
	C47.790771,459.743256 56.079884,459.743256 64.678329,459.743256 
	C64.678329,452.476166 64.678329,445.734253 64.678329,438.354004 
	C50.730415,438.354004 36.831024,438.354004 22.595762,438.354004 
	C22.595762,431.000092 22.595762,424.277283 22.595762,417.170654 
	C36.607525,417.170654 50.378437,417.170654 64.571579,417.170654 
	C64.571579,410.088196 64.571579,403.368378 64.571579,395.752686 
	C61.816616,395.752686 58.909462,395.752838 56.002312,395.752625 
	C46.176342,395.751862 36.350342,395.737183 26.524426,395.760254 
	C24.241226,395.765625 22.187908,395.848907 22.224867,392.539490 
	C22.328712,383.240814 22.261093,373.940216 22.261093,364.195007 
	C50.834953,364.195007 78.991135,364.195007 107.507530,364.195007 
	C107.595406,366.015137 107.741875,367.640686 107.742409,369.266266 
	C107.755234,408.237061 107.688622,447.208130 107.843063,486.178314 
	C107.860039,490.459503 106.876465,491.899811 102.338577,491.859192 
	C77.359291,491.635468 52.376217,491.654480 27.396400,491.845856 
	C23.108381,491.878723 22.041246,490.440918 22.166021,486.410980 
	C22.432867,477.792542 22.247730,469.160095 22.247730,459.743408 
	C27.992571,459.743408 33.247429,459.743408 39.001976,459.743347 
z"/>
<path fill="#C0C9D3" opacity="1.000000" stroke="none" 
	d="
M381.002197,438.252319 
	C375.201385,438.252411 369.900085,438.252411 364.177246,438.252411 
	C364.177246,445.421356 364.177246,452.141693 364.177246,459.468262 
	C377.870239,459.468262 391.600281,459.468262 405.787842,459.468262 
	C405.787842,470.407013 405.787842,480.756592 405.787842,491.426910 
	C377.590302,491.426910 349.543610,491.426910 321.248444,491.426910 
	C321.248444,448.877350 321.248444,406.648773 321.248444,364.083984 
	C349.517365,364.083984 377.552734,364.083984 405.920410,364.083984 
	C405.920410,374.564819 405.920410,384.800262 405.920410,395.623718 
	C392.010986,395.623718 378.266876,395.623718 364.140686,395.623718 
	C364.140686,402.917084 364.140686,409.633728 364.140686,416.863953 
	C377.960999,416.863953 391.708038,416.863953 405.849457,416.863953 
	C405.849457,424.069580 405.849457,430.776703 405.849457,438.252228 
	C397.690948,438.252228 389.596344,438.252228 381.002197,438.252319 
z"/>
<path fill="#FEC96B" opacity="1.000000" stroke="none" 
	d="
M139.746918,143.318985 
	C139.747314,156.384842 139.747314,168.986557 139.747314,182.145081 
	C114.819115,181.794861 89.743813,186.219772 68.501999,168.912354 
	C55.908230,158.651199 47.805676,145.804092 44.743462,128.999542 
	C46.904533,128.999542 48.653511,128.999542 50.402493,128.999542 
	C75.357414,128.999542 100.312340,128.992645 125.267265,129.002792 
	C135.816071,129.007095 139.332062,132.387894 139.746918,143.318985 
z"/>
<path fill="#64A5EE" opacity="1.000000" stroke="none" 
	d="
M202.000870,491.763947 
	C196.337708,491.761169 191.172256,491.670319 186.011765,491.791260 
	C183.211807,491.856842 182.199081,490.732666 182.208984,487.961182 
	C182.276138,469.140045 182.282242,450.318390 182.204773,431.497314 
	C182.193130,428.667206 183.266266,427.722290 186.028931,427.732971 
	C204.850021,427.805786 223.672012,427.720428 242.491837,427.892303 
	C243.734894,427.903625 246.030441,429.604279 246.040024,430.537598 
	C246.246719,450.665192 246.197205,470.795471 246.197205,491.764099 
	C231.341446,491.764099 216.921051,491.764099 202.000870,491.763947 
z"/>
<path fill="#AF9AED" opacity="1.000000" stroke="none" 
	d="
M76.999939,342.252563 
	C64.043747,342.252686 51.587566,342.252686 38.926704,342.252686 
	C39.071815,341.446320 38.993496,340.849152 39.253216,340.587463 
	C48.741230,331.026581 58.219246,321.454651 67.835266,312.023560 
	C68.877083,311.001801 70.735870,310.344879 72.226784,310.324371 
	C82.701752,310.180237 93.181442,310.357391 103.655563,310.184784 
	C107.093216,310.128174 107.862366,311.572662 107.803749,314.652008 
	C107.655022,322.465302 107.617462,330.286865 107.817528,338.097870 
	C107.903854,341.468140 106.598663,342.362061 103.441948,342.304535 
	C94.797165,342.147034 86.147606,342.251617 76.999939,342.252563 
z"/>
<path fill="#B09BEF" opacity="1.000000" stroke="none" 
	d="
M355.999939,342.245056 
	C344.214935,342.245178 332.929962,342.245178 321.325806,342.245178 
	C321.325806,331.496796 321.325806,321.254761 321.325806,310.251587 
	C325.803253,310.251587 330.238068,310.210266 334.671844,310.260559 
	C342.813690,310.352844 351.860596,308.325409 358.841919,311.233948 
	C365.829895,314.145264 370.739471,322.025696 376.587036,327.700226 
	C381.095245,332.075043 385.645142,336.406860 390.176483,340.757843 
	C389.977661,341.253540 389.778839,341.749268 389.580017,342.244965 
	C378.553345,342.244965 367.526642,342.244965 355.999939,342.245056 
z"/>
<path fill="#484D55" opacity="1.000000" stroke="none" 
	d="
M454.813171,150.239166 
	C449.206116,150.240097 444.078278,150.240097 438.319153,150.240097 
	C438.319153,137.571716 438.319153,125.485580 438.319153,113.333984 
	C428.672455,114.536583 427.767670,115.486214 427.767365,123.822891 
	C427.766632,141.989273 427.789154,160.155701 427.758057,178.322021 
	C427.739258,189.304901 424.012482,192.995453 413.031067,192.998093 
	C380.198242,193.005981 347.365448,193.004883 314.532623,192.998795 
	C303.047760,192.996658 299.770447,189.675262 299.763336,178.020523 
	C299.751831,159.187485 299.665161,140.353577 299.839661,121.522148 
	C299.874268,117.783730 298.835083,115.844810 295.127991,114.660599 
	C288.634277,112.586220 282.320770,109.943192 275.948212,107.495598 
	C271.232544,105.684395 268.002167,102.652351 267.890167,97.219330 
	C267.785767,92.152885 270.227753,88.685265 276.008606,86.504440 
	C303.427429,76.160667 330.837463,65.788536 358.387543,55.804295 
	C361.656952,54.619446 366.122955,54.759892 369.427094,55.959030 
	C396.659607,65.842178 423.733032,76.162735 450.893036,86.247314 
	C457.030487,88.526161 459.798706,92.764244 459.777924,99.186821 
	C459.727753,114.686401 459.682556,130.187027 459.827423,145.685440 
	C459.859589,149.123322 458.822662,150.724457 454.813171,150.239166 
M321.001587,161.463623 
	C321.001587,162.462677 321.000854,163.461716 321.001678,164.460770 
	C321.007782,171.862167 321.007904,171.868469 328.247833,171.869232 
	C352.391235,171.871796 376.535065,171.799347 400.677673,171.938126 
	C404.691772,171.961197 406.285583,170.853912 406.205841,166.598953 
	C405.974976,154.281815 406.140839,141.957489 406.099396,129.636169 
	C406.094727,128.250305 405.760132,126.865547 405.514465,124.991562 
	C403.044800,125.814743 401.162262,126.382233 399.322723,127.065392 
	C389.649261,130.657852 379.944366,134.171677 370.339722,137.940399 
	C366.071014,139.615372 362.021088,139.774887 357.746521,138.141663 
	C349.195679,134.874588 340.594910,131.737930 332.008240,128.565063 
	C328.650970,127.324524 325.276154,126.131500 321.001587,124.589355 
	C321.001587,137.252838 321.001587,148.862915 321.001587,161.463623 
M378.547363,112.041252 
	C391.370819,107.222809 404.194244,102.404366 418.077789,97.187584 
	C416.094116,96.211990 415.287628,95.726967 414.421082,95.402260 
	C398.534424,89.449127 382.675354,83.418114 366.705750,77.695763 
	C364.627899,76.951210 361.768372,77.251503 359.617889,78.028305 
	C344.288513,83.565613 329.046204,89.344238 313.787170,95.075325 
	C312.552307,95.539116 311.399475,96.221336 309.270660,97.259361 
	C323.484772,102.577599 336.825806,106.864624 349.539795,112.553154 
	C359.383026,116.957245 368.428467,117.837677 378.547363,112.041252 
z"/>
<path fill="#494D55" opacity="1.000000" stroke="none" 
	d="
M239.538498,344.612061 
	C213.296844,361.906982 181.366776,350.312408 173.095154,320.816559 
	C167.890976,302.258972 177.101562,282.008179 195.096634,272.443237 
	C211.722748,263.605957 234.108307,267.847870 246.116745,282.111176 
	C262.667267,301.769440 260.057098,327.561707 239.538498,344.612061 
M216.902115,331.356415 
	C230.896942,328.964844 238.844238,316.223938 234.372910,303.347656 
	C230.828873,293.141724 220.011124,287.116577 209.701706,289.606567 
	C199.020264,292.186432 191.962555,301.978607 193.157394,312.560852 
	C194.457870,324.078888 203.737381,331.728149 216.902115,331.356415 
z"/>
<path fill="#7B8590" opacity="1.000000" stroke="none" 
	d="
M321.001587,160.968323 
	C321.001587,148.862915 321.001587,137.252838 321.001587,124.589355 
	C325.276154,126.131500 328.650970,127.324524 332.008240,128.565063 
	C340.594910,131.737930 349.195679,134.874588 357.746521,138.141663 
	C362.021088,139.774887 366.071014,139.615372 370.339722,137.940399 
	C379.944366,134.171677 389.649261,130.657852 399.322723,127.065392 
	C401.162262,126.382233 403.044800,125.814743 405.514465,124.991562 
	C405.760132,126.865547 406.094727,128.250305 406.099396,129.636169 
	C406.140839,141.957489 405.974976,154.281815 406.205841,166.598953 
	C406.285583,170.853912 404.691772,171.961197 400.677673,171.938126 
	C376.535065,171.799347 352.391235,171.871796 328.247833,171.869232 
	C321.007904,171.868469 321.007782,171.862167 321.001678,164.460770 
	C321.000854,163.461716 321.001587,162.462677 321.001587,160.968323 
z"/>
<path fill="#C0C8D2" opacity="1.000000" stroke="none" 
	d="
M378.177979,112.164719 
	C368.428467,117.837677 359.383026,116.957245 349.539795,112.553154 
	C336.825806,106.864624 323.484772,102.577599 309.270660,97.259361 
	C311.399475,96.221336 312.552307,95.539116 313.787170,95.075325 
	C329.046204,89.344238 344.288513,83.565613 359.617889,78.028305 
	C361.768372,77.251503 364.627899,76.951210 366.705750,77.695763 
	C382.675354,83.418114 398.534424,89.449127 414.421082,95.402260 
	C415.287628,95.726967 416.094116,96.211990 418.077789,97.187584 
	C404.194244,102.404366 391.370819,107.222809 378.177979,112.164719 
z"/>
<path fill="#FDC96B" opacity="1.000000" stroke="none" 
	d="
M216.502747,331.416016 
	C203.737381,331.728149 194.457870,324.078888 193.157394,312.560852 
	C191.962555,301.978607 199.020264,292.186432 209.701706,289.606567 
	C220.011124,287.116577 230.828873,293.141724 234.372910,303.347656 
	C238.844238,316.223938 230.896942,328.964844 216.502747,331.416016 
z"/>
</svg>